<svg width="46" height="46" viewBox="0 0 46 46" fill="none" xmlns="http://www.w3.org/2000/svg">
<path d="M22.6471 2.38765C21.2249 2.38765 19.783 2.71762 18.385 3.29353C18.1969 3.87077 18.042 4.59928 17.9535 5.39493C17.8377 6.43793 17.8005 7.58055 17.7881 8.65213C20.7839 8.32445 24.5102 8.32445 27.506 8.65213C27.4936 7.58055 27.4565 6.43785 27.3406 5.39484C27.2521 4.59936 27.0973 3.87077 26.9091 3.29353C25.5111 2.71762 24.0692 2.38765 22.6471 2.38765ZM31.5435 4.09786C32.3675 4.72189 33.1453 5.41404 33.8685 6.15325C34.0038 5.56496 34.2834 5.0301 34.6673 4.58786L31.5435 4.09786ZM16.5017 4.22967C13.4342 6.01843 10.7474 8.89302 9.19877 11.8672C6.27235 17.4879 5.68759 25.7523 9.15189 30.8695C11.7469 34.702 17.7174 36.1813 22.6471 36.1813C27.5767 36.1813 33.5473 34.7022 36.1421 30.8694C39.6066 25.7523 39.0217 17.4879 36.0952 11.8671C34.5468 8.89293 31.8599 6.01852 28.7925 4.22967C28.8436 4.55257 28.886 4.88325 28.9232 5.21906C29.0579 6.4305 29.0924 7.71351 29.1014 8.86975C30.7561 9.14877 32.0244 9.55332 32.5551 10.0841C35.386 12.915 39.2375 21.9999 33.9706 29.9003C30.6395 34.8968 14.6546 34.8968 11.3235 29.9003C6.05658 21.9999 9.90808 12.915 12.739 10.0841C13.2698 9.55332 14.5379 9.14877 16.1926 8.86975C16.2018 7.71351 16.2363 6.4305 16.3709 5.21906C16.4081 4.88325 16.4506 4.55257 16.5017 4.22967ZM5.66176 4.59928C4.88 4.59928 4.24632 5.23295 4.24632 6.01472C4.24635 6.24546 4.30278 6.4727 4.41071 6.67664C4.51864 6.88059 4.6748 7.05505 4.86558 7.18484V13.2246L6.45795 12.0303V7.18334C6.64852 7.05369 6.80454 6.87947 6.91246 6.6758C7.02038 6.47214 7.07693 6.24521 7.0772 6.01472C7.0772 5.23295 6.44353 4.59928 5.66176 4.59928ZM37.4039 4.92483C36.2707 4.92483 35.3692 5.82629 35.3692 6.95952C35.3692 8.09276 36.2707 8.99422 37.4039 8.99422C38.5371 8.99422 39.4386 8.09276 39.4386 6.95952C39.4386 5.82629 38.5371 4.92483 37.4039 4.92483ZM39.6396 9.80854C39.0221 10.2948 38.2456 10.5866 37.4041 10.5866C37.3382 10.5866 37.2732 10.5842 37.2082 10.5807C37.2799 10.7087 37.3501 10.8376 37.4188 10.9673L40.0596 12.948L39.6396 9.80854ZM18.5122 10.0297C16.9856 10.0377 15.2163 10.3621 13.8029 11.4558C11.4468 13.2788 9.99593 21.6083 10.8402 24.4392C12.3073 18.9749 13.6705 13.4677 20.3874 10.172C19.7671 10.0748 19.1401 10.0273 18.5122 10.0297ZM6.56455 13.9407L3.55187 16.2004L2.2709 22.606L5.64849 26.6589C4.68007 22.5433 5.13752 17.9253 6.56455 13.9407ZM38.7296 13.9407C40.1565 17.9254 40.614 22.5433 39.6456 26.6588L43.0232 22.6058L41.7422 16.2002L38.7296 13.9407ZM9.43435 33.6096C9.11738 33.7131 8.79281 33.9109 8.52476 34.1789C8.15887 34.5448 7.93381 35.0131 7.89099 35.4266C7.90957 35.4588 7.94434 35.529 8.04404 35.6179C8.26104 35.8114 8.63613 36.0752 9.11685 36.3573C10.0782 36.9217 11.4656 37.5743 13.0275 38.1817C14.9009 38.9104 17.0393 39.5709 19.0199 39.9846V37.5421C15.5282 37.0891 11.9519 35.921 9.43435 33.6096ZM35.8598 33.6096C33.3422 35.9208 29.7658 37.089 26.2741 37.5419V39.9844C28.2546 39.5708 30.3931 38.9102 32.2666 38.1815C33.8284 37.5742 35.2158 36.9215 36.1772 36.3572C36.6579 36.075 37.033 35.8113 37.25 35.6176C37.3497 35.5288 37.3844 35.4586 37.403 35.4265C37.3604 35.0129 37.1352 34.5445 36.7694 34.1787C36.5013 33.9107 36.1766 33.713 35.8598 33.6094V33.6096ZM6.84029 36.6769L1.59237 40.1755V44.0547H4.86558V42.4623H6.45795V44.0547H38.8362V42.4623H40.4285V44.0547H43.7017V40.1755L38.4538 36.6769C38.4063 36.7201 38.3583 36.7627 38.3102 36.8058C37.9633 37.1151 37.5201 37.4153 36.9834 37.7304C35.9101 38.3603 34.4666 39.0347 32.8437 39.6658C29.5979 40.928 25.677 42.02 22.6471 42.02C19.6171 42.02 15.6962 40.9281 12.4504 39.6659C10.8275 39.0347 9.38402 38.3605 8.31067 37.7305C7.77404 37.4156 7.33083 37.1152 6.98387 36.8058C6.93584 36.7627 6.8878 36.7201 6.84029 36.6769ZM20.6124 37.7015V40.2663C21.341 40.3691 22.0289 40.4276 22.6471 40.4276C23.2652 40.4276 23.9532 40.3691 24.6818 40.2663V37.7015C23.327 37.7976 21.9671 37.7976 20.6124 37.7015Z" fill="white"/>
</svg>
